<svg fill="#fff" id="Layer_1" data-name="Layer 1" xmlns="http://www.w3.org/2000/svg" viewBox="0 0 512.07 512.06"><title>shoes</title><path d="M102,213.33h0c1.71.09,171.47,8.54,222.29,8.54,115.8,0,187.73-42.51,187.73-110.93S440.14,0,324.34,0C273.51,0,103.75,8.46,102.47,8.54,42.18,8.54.07,50.65.07,110.94.07,174.18,53.21,213.33,102,213.33Zm.87-187.74c1.7-.08,171-8.52,221.44-8.52,82.5,0,170.67,24.66,170.67,93.87s-88.17,93.87-170.67,93.87c-50.41,0-219.74-8.44-221.87-8.53-41,0-85.33-32.62-85.33-85.33C17.14,60.7,52.23,25.61,102.9,25.59Z" transform="translate(0 -0.01)"/><path d="M102.47,179.21h42.67c37.67,0,48.62-17.66,55.18-28.22,1.35-2.19,3.4-5.49,4.56-5.91h17.07v8.53a8.53,8.53,0,1,0,17.07,0v-8.53h34.13v8.53a8.53,8.53,0,1,0,17.07,0v-8.53h34.13v8.53a8.53,8.53,0,1,0,17.07,0v-8.53c8.21,0,17.72,3.36,26,28.3a8.54,8.54,0,1,0,16.2-5.39c-4.55-13.64-10.35-23.68-17.48-30.31,9.84-5.36,17.92-13.88,17.92-26.73S375.92,89.7,366,84.3c7.19-6.62,13-16.69,17.6-30.4a8.54,8.54,0,0,0-16.2-5.39c-8.31,24.93-17.83,28.3-26,28.3V68.28a8.53,8.53,0,1,0-17.07,0v8.53H290.21V68.27a8.53,8.53,0,1,0-17.07,0V76.8H239V68.28a8.53,8.53,0,0,0-17.07,0v8.52H204.64c-.92-.4-3-3.7-4.32-5.9-6.53-10.56-17.46-28.22-55.14-28.22h-42.7a68.27,68.27,0,0,0,0,136.53ZM341.41,94c4.88.86,25.6,5.24,25.6,17,0,12.12-20.9,16.21-25.6,17Zm-51.2-.11h34.13V128H290.21Zm-51.2,0h34.13V128H239V93.87Zm-53.6-14.64.39.63c3.87,6.24,8.66,14,19.07,14h17.07V128H204.87c-10.38,0-15.2,7.76-19.06,14l-.44.71c-5.85-4.06-14.63-13.23-14.63-31.76S179.52,83.31,185.41,79.24Zm-82.94-19.5h42.7c14.22,0,22.94,2.73,28.85,6.64-9.06,6.82-20.35,20.18-20.35,44.56S165,148.67,174,155.49c-5.92,3.92-14.64,6.65-28.87,6.65H102.47a51.2,51.2,0,0,1,0-102.4Z" transform="translate(0 -0.01)"/><path d="M446.45,384.36l-68.32-20.47-.31-.08-102-30.57c-11.35-3.78-22.83-13.61-32.11-24.6-.05-.05-.05-.13-.09-.18s-.14-.08-.19-.15c-8.48-10.11-15.07-21.16-17.87-29.39-9-26.39-35.76-26.32-48.67-22.57a8.52,8.52,0,0,0-6,10c.73,3.28,18.41,79.54,80.37,107.62l0,0c.18.12.38.16.57.27.5.23,1,.51,1.47.73l56.07,18.66,0,0s.06,0,.08,0l10.5,3.49-17,28.44c-25.71-5.34-131.49-30.21-185.45-86.6,15.38-5.2,31.92-13.18,49.35-24.76a8.53,8.53,0,1,0-9.46-14.21c-59.7,39.68-102.81,32.55-117.22,18.06C31,308.9,18.87,305.14,10,308.8,3.79,311.36.08,317.12.08,324.18H.84c-.95,11.43-.9,47.35-.77,170.76a17.32,17.32,0,0,0,17.06,17.13H341.41a8.53,8.53,0,0,0,7.3-4.12L372,469.4H495v17c0,5.1-3.43,8.53-8.54,8.53L375.73,495a8.53,8.53,0,0,0,0,17.07L486.46,512c14.6,0,25.61-11,25.61-25.6V460.87C512.07,424.35,486.17,394.29,446.45,384.36ZM214.45,321c-13.22-18.58-20.76-38.29-24.3-49.37h0c6.77,0,15.63,2.2,19.23,12.78,2.71,8,8.25,18.08,15.64,28Zm38.66,35a103.7,103.7,0,0,1-27.94-21.73L236,325.54c7.32,7.72,15.64,14.63,24.44,19.44Zm54.62,19.16L269.36,362.4l7.38-11.08,36.21,10.85Zm21.63-8.08,32.6,9.76c-11.58,13-24.27,8.44-26.43,7.58L324,380.58Zm37.85,85.24a8.52,8.52,0,0,0-7.3,4.12L336.59,495l-319.45-.07c0-4.89,0-10.66,0-17H324.54a8.53,8.53,0,1,0,0-17.07H17.11c-.05-53.95-.09-131.41,0-136.17l0-.26c1.83-.16,6.41,1.13,11,5.75,13.54,13.62,38.77,20.5,71,13.93,62.74,73.32,200.66,98.42,206.61,99.48a8.76,8.76,0,0,0,1.48.13,8.54,8.54,0,0,0,7.32-4.15l22.21-37.09c11.84,2.06,29.39-.78,42.62-20.4l62.5,18.72c28.95,7.24,48.65,27,52.39,51.52H367.2Z" transform="translate(0 -0.01)"/></svg>